# xmcd
#
# Track frame offsets: 
#        150
#        17442
#        47554
#        66735
#        87853
#        105853
#        124625
#        147541
#        169639
#        191156
#        214391
#        236270
#
# Disc length: 3458 seconds
#
# Revision: 0
# Processed by: cddbd v1.5.2PL0 Copyright (c) Steve Scherf et al.
# Submitted via: ExactAudioCopy v0.99pb4
#
DISCID=a30d800c
DTITLE=Coco Montoya - The Essential Coco Montoya
DYEAR=2009
DGENRE=Blues
TTITLE0=Fear No Evil
TTITLE1=Am I Losing You
TTITLE2=Seven Desires
TTITLE3=Sending Me Angeles
TTITLE4=Too Much Water
TTITLE5=Monkey See, Monkey Do
TTITLE6=Do What You Want To Do
TTITLE7=Just Let Go
TTITLE8=Same Dog
TTITLE9=You Don't Love Me
TTITLE10=Give It To A Good Man
TTITLE11=You'd Think I'd Know Better By Now
EXTD=
EXTT0=
EXTT1=
EXTT2=
EXTT3=
EXTT4=
EXTT5=
EXTT6=
EXTT7=
EXTT8=
EXTT9=
EXTT10=
EXTT11=
PLAYORDER=
